<?xml version="1.0" encoding="UTF-8" standalone="no"?>
<!-- Created with Inkscape (http://www.inkscape.org/) -->

<svg
   width="1920"
   height="1080"
   viewBox="0 0 1920 1080"
   version="1.1"
   id="svg5"
   inkscape:version="1.1.1 (3bf5ae0d25, 2021-09-20)"
   sodipodi:docname="logo.svg"
   inkscape:export-filename="/home/alejandro/Imágenes/logo.png"
   inkscape:export-xdpi="96"
   inkscape:export-ydpi="96"
   xmlns:inkscape="http://www.inkscape.org/namespaces/inkscape"
   xmlns:sodipodi="http://sodipodi.sourceforge.net/DTD/sodipodi-0.dtd"
   xmlns="http://www.w3.org/2000/svg"
   xmlns:svg="http://www.w3.org/2000/svg">
  <sodipodi:namedview
     id="namedview7"
     pagecolor="#ffffff"
     bordercolor="#666666"
     borderopacity="1.0"
     inkscape:pageshadow="2"
     inkscape:pageopacity="0.0"
     inkscape:pagecheckerboard="0"
     inkscape:document-units="px"
     showgrid="false"
     inkscape:snap-global="false"
     inkscape:zoom="0.43126148"
     inkscape:cx="943.74299"
     inkscape:cy="655.05503"
     inkscape:window-width="1920"
     inkscape:window-height="1016"
     inkscape:window-x="0"
     inkscape:window-y="27"
     inkscape:window-maximized="1"
     inkscape:current-layer="layer1" />
  <defs
     id="defs2" />
  <g
     inkscape:label="Capa 1"
     inkscape:groupmode="layer"
     id="layer1">
    <path
       style="fill:none;stroke:#000000;stroke-width:2.99623px;stroke-linecap:butt;stroke-linejoin:miter;stroke-opacity:1"
       d="M 488.3615,257.63968 447.69958,642.4049 849.56626,676.59736 880.45885,301.13942 Z"
       id="path153" />
    <path
       style="fill:none;stroke:#000000;stroke-width:2.99623px;stroke-linecap:butt;stroke-linejoin:miter;stroke-opacity:1"
       d="m 998.14339,600.76999 -125.27566,73.74808 30.39758,-374.50074 209.64629,-165.38507 -19.4913,269.3033"
       id="path155"
       sodipodi:nodetypes="ccccc" />
    <path
       id="path157"
       style="fill:none;stroke:#000000;stroke-width:2.99623px;stroke-linecap:butt;stroke-linejoin:miter;stroke-opacity:1"
       d="M 739.16512,72.783313 496.84368,236.97606 893.46468,279.2238 1096.6403,116.0178 Z"
       sodipodi:nodetypes="ccccc" />
    <path
       style="fill:none;stroke:#000000;stroke-width:2.99623px;stroke-linecap:butt;stroke-linejoin:miter;stroke-opacity:1"
       d="M 1034.4952,996.7678 1414.5129,903.20031 1318.7987,537.41267 943.46785,634.5116 Z"
       id="path1146"
       sodipodi:nodetypes="ccccc" />
    <path
       style="fill:none;stroke:#000000;stroke-width:2.99623px;stroke-linecap:butt;stroke-linejoin:miter;stroke-opacity:1"
       d="m 1317.4459,516.55388 129.1144,-212.8123 -328.959,67.03189 -26.2554,36.32195 -150.9804,208.86769 z"
       id="path1148"
       sodipodi:nodetypes="cccccc" />
    <path
       style="fill:none;stroke:#000000;stroke-width:2.99623px;stroke-linecap:butt;stroke-linejoin:miter;stroke-opacity:1"
       d="m 1331.9351,531.5379 131.8871,-217.96104 114.3286,415.45937 -147.6967,163.1076 z"
       id="path1150"
       sodipodi:nodetypes="ccccc" />
    <path
       style="fill:none;stroke:#000000;stroke-width:2.99623px;stroke-linecap:butt;stroke-linejoin:miter;stroke-opacity:1"
       d="m 1134.8395,918.53738 c 45.7003,-15.0947 93.3134,-23.55234 141.3813,-30.43225 -17.9864,-43.04414 33.5826,-163.29652 51.3434,-177.366 0.2726,-17.18008 -120.9701,52.17822 -104.8807,76.6875 8.8611,13.49769 -53.4904,-136.24509 -53.4904,-136.24509 -19.9277,-25.11191 -34.9693,184.86937 -29.5462,150.94765 3.7783,-23.63264 -116.6465,-37.49832 -115.6625,-21.19044 0,0 32.5687,-1.32892 110.8551,137.59863 z"
       id="path1888"
       sodipodi:nodetypes="cccscscc" />
    <path
       style="fill:none;stroke:#000000;stroke-width:2.99623px;stroke-linecap:butt;stroke-linejoin:miter;stroke-opacity:1"
       d="m 1414.5678,480.86345 11.9025,295.5944 105.8142,-131.71757 z"
       id="path6274" />
    <path
       style="fill:none;stroke:#000000;stroke-width:2.99623px;stroke-linecap:butt;stroke-linejoin:miter;stroke-opacity:1"
       d="m 1459.19,670.73844 -33.3732,-102.77894 28.0058,-21.51727 15.4962,105.99953 z"
       id="path6276" />
    <path
       style="fill:none;stroke:#000000;stroke-width:2.99623px;stroke-linecap:butt;stroke-linejoin:miter;stroke-opacity:1"
       d="m 1147.7685,387.18622 c 65.293,-19.78081 112.6076,-12.17326 146.0488,16.56972 -29.3723,41.13577 -51.4102,85.24773 -105.0205,116.54814 -38.053,18.90381 -51.4498,14.36917 -59.5585,4.80754 -19.9704,-57.86834 4.9474,-95.3189 18.5302,-137.9254 z"
       id="path6278"
       sodipodi:nodetypes="ccccc" />
    <path
       style="fill:none;stroke:#000000;stroke-width:2.81429px;stroke-linecap:butt;stroke-linejoin:miter;stroke-opacity:1"
       d="m 1146.0745,422.65771 c 5.4908,0.25378 50.7971,-15.62039 54.7551,-20.18815 -2.9072,10.83668 -10.6291,29.69686 -29.0766,34.72783 -13.1046,2.51878 -24.9873,-9.28813 -25.6785,-14.53968 z"
       id="path6560"
       sodipodi:nodetypes="cccc" />
    <path
       style="fill:none;stroke:#000000;stroke-width:2.53072px;stroke-linecap:butt;stroke-linejoin:miter;stroke-opacity:1"
       d="m 1251.4396,447.43059 c -6.0785,0.9271 -28.2638,-34.11881 -29.2205,-40.0257 -6.5662,8.97509 -9.5618,39.55967 7.8534,45.23872 10.4815,2.54653 20.814,0.0965 21.3671,-5.21302 z"
       id="path6560-5"
       sodipodi:nodetypes="cccc" />
    <path
       style="fill:none;stroke:#000000;stroke-width:2.99623px;stroke-linecap:butt;stroke-linejoin:miter;stroke-opacity:1"
       d="m 1133.3243,489.24226 c 8.3268,-14.48533 16.1506,-24.23581 41.7752,-22.83585 17.6814,7.94821 24.555,20.68453 20.1638,38.28537 -12.7583,-11.21959 -28.4681,-22.52101 -61.939,-15.44952 z"
       id="path6564"
       sodipodi:nodetypes="cccc" />
    <path
       style="fill:none;stroke:#000000;stroke-width:2.99623px;stroke-linecap:butt;stroke-linejoin:miter;stroke-opacity:1"
       d="m 978.66192,348.1706 c 3.26769,-3.67634 -0.80239,-2.99952 -2.90454,1.71627 -2.23054,5.00347 3.11248,13.44981 9.30719,11.15551 18.58833,-6.88441 2.81825,-45.45065 -8.64712,-42.97175 -8.76134,1.89422 -16.37976,17.10886 -21.2551,23.69709 -21.08399,28.49157 -31.47234,60.27677 -34.72112,95.5148 -1.52047,16.49205 -8.58561,32.56476 -1.6502,48.91239 12.3189,9.69556 14.41324,0.98765 25.67768,-0.26396 36.12968,-4.01441 51.31037,1.85697 80.59789,-25.94151 9.9532,-9.4472 17.8621,-17.61193 24.5556,-29.76994 6.8809,-12.49781 12.85,-26.27405 7.9871,-40.72739 -13.1112,-38.96872 -69.34266,-15.03729 -86.27468,8.44907 -4.19853,5.82377 -16.30432,34.24888 -16.30432,42.44369 0,2.90874 2.53074,-5.4105 2.64031,-8.31717"
       id="path14222" />
    <path
       style="fill:none;stroke:#000000;stroke-width:2.99623px;stroke-linecap:butt;stroke-linejoin:miter;stroke-opacity:1"
       d="m 988.56326,360.77829 c -0.93692,6.85966 -2.17196,10.06364 -6.73312,14.45597 -4.85329,4.67373 -7.72914,3.81935 -13.33382,4.75259 -5.97787,0.99537 -10.78709,18.45329 -12.34384,23.2351 -2.3269,7.14741 3.15479,25.0791 5.9408,12.34359"
       id="path14224" />
    <path
       style="fill:none;stroke:#000000;stroke-width:2.99623px;stroke-linecap:butt;stroke-linejoin:miter;stroke-opacity:1"
       d="m 565.64583,499.71237 c -54.36779,-87.11714 -8.95753,-171.81078 65.60939,-164.20215 17.18817,1.35177 34.51183,14.59184 53.71766,43.99846 34.49895,-39.40114 95.60475,-42.59602 123.03699,7.57563 32.34715,65.78145 -18.01222,145.67138 -155.9008,209.01027 -2.30299,1.0579 -44.31232,-38.67057 -86.46324,-96.38221 z"
       id="path14541"
       sodipodi:nodetypes="ccccsc" />
    <path
       style="fill:#000000;stroke:none;stroke-width:0.472505"
       d="m 659.53801,225.54874 c -0.48401,-2.92273 -0.12164,-6.91281 0.91868,-10.11611 0.61695,-1.90003 1.79357,-3.67694 5.42635,-8.19576 4.10843,-5.11004 5.13539,-6.14788 8.98572,-9.07858 5.60903,-4.26942 9.51141,-6.76138 16.71546,-10.67422 19.16169,-10.40749 47.62369,-20.66185 78.87655,-28.41768 6.89459,-1.71093 27.34808,-6.11452 28.81725,-6.20423 2.75165,-0.16809 0.46831,-0.66687 -34.36675,-7.50921 -25.51646,-5.012 -33.1167,-6.92057 -30.63878,-7.69396 0.32865,-0.10367 9.17655,0.94834 19.66152,2.33541 20.06009,2.65376 23.9086,3.0724 35.187,3.82895 10.9408,0.73377 18.6412,0.33593 23.24925,-1.20119 1.1617,-0.38765 1.95758,-0.7274 1.76852,-0.75523 -1.6979,-0.25049 -9.71204,-2.4472 -13.99617,-3.83694 -27.51293,-8.92505 -44.46108,-22.81605 -46.51946,-38.128043 -0.42492,-3.162191 0.17349,-9.399951 0.9529,-9.932831 0.28374,-0.193856 1.88555,2.916171 3.55985,6.911283 5.77793,13.787271 11.71223,21.094081 22.16176,27.287711 8.68969,5.15058 19.90904,9.1151 34.31986,12.12766 l 4.37339,0.9143 -2.52759,-3.65085 c -9.40325,-13.58143 -8.37563,-27.81597 2.55275,-35.363596 2.68265,-1.852898 2.76528,-1.881692 1.96301,-0.688503 -6.45678,9.604289 -7.24886,19.837829 -2.12711,27.479769 3.71197,5.53832 9.32909,7.00468 16.36019,4.27086 1.05746,-0.411 1.98198,-0.82172 2.05452,-0.91203 0.0728,-0.0902 1.04002,-0.71157 2.14614,-1.38201 2.00088,-1.20943 2.01334,-1.21116 1.85484,-0.26337 -0.0878,0.52482 -0.85998,2.31528 -1.71588,3.97879 -1.63633,3.18004 -1.64064,4.1309 -0.021,4.36967 1.74821,0.25767 3.68512,-0.75991 6.65378,-3.49421 1.59849,-1.47258 3.49055,-3.04177 4.2044,-3.48695 1.28143,-0.79948 1.29396,-0.78872 0.9991,0.86561 -0.1642,0.92137 0.10217,2.42941 0.59094,3.35129 1.76499,3.32108 7.88156,3.49279 17.8984,0.50264 14.1268,-4.21698 31.23327,-14.01849 36.98147,-21.18921 2.3157,-2.88882 2.90473,-2.69811 1.74749,0.56584 -0.99238,2.79877 -2.70484,4.93601 -6.48126,8.0852 -7.86528,6.56408 -22.47984,13.53894 -39.98016,19.08086 -4.60083,1.45704 -8.42114,2.71878 -8.48922,2.80381 -0.18996,0.237 8.407,0.95799 14.95167,1.25413 13.10377,0.59278 23.38698,0.12435 36.43667,-1.6603 15.4476,-2.1124 29.63597,-6.08798 51.47399,-14.42322 7.06598,-2.69693 13.30569,-5.07753 13.86577,-5.29002 5.45083,-2.06812 -7.7392,5.92175 -16.04768,9.72085 -24.99872,11.43088 -63.04301,17.62238 -97.40485,15.85218 -3.49801,-0.18037 -6.53043,-0.27446 -6.73888,-0.20944 -0.68308,0.21393 0.20135,1.42273 1.9471,2.66488 4.65261,3.30868 18.88563,6.73295 47.25746,11.3697 19.5504,3.19503 23.15846,4.05956 17.3218,4.15047 -4.28269,0.0668 -10.43919,-0.43697 -32.78036,-2.68211 -27.6961,-2.78322 -37.79402,-3.74849 -38.12712,-3.64458 -0.14891,0.0476 1.59235,1.63513 3.86975,3.53028 8.65297,7.2006 14.73984,13.95005 20.90281,23.17838 12.18198,18.24063 14.01801,34.21191 5.56532,48.41227 -2.46809,4.14636 -6.91566,8.75348 -12.02393,12.45529 -3.50847,2.54251 -11.1037,6.84147 -13.98053,7.91308 l -1.88079,0.70057 1.32999,-1.1729 c 10.64033,-9.38311 18.19482,-20.86874 20.41901,-31.0442 3.59604,-16.45203 -4.70105,-33.70983 -20.93424,-43.54325 l -2.85996,-1.73245 -5.59821,6.48279 c -6.0229,6.97451 -10.56761,11.29534 -15.38082,14.62322 -9.67006,6.68585 -18.99139,9.87932 -30.95992,10.60671 -4.36982,0.26577 -5.73095,0.17199 -13.16477,-0.9065 -7.01268,-1.01734 -8.81892,-1.41423 -11.71505,-2.57422 -4.67789,-1.87372 -7.23673,-3.68817 -8.97251,-6.3624 -3.82849,-5.89814 -1.48475,-13.66032 8.09806,-26.81976 l 4.30942,-5.91791 -5.49811,0.81126 c -44.67558,6.59371 -86.57201,27.9055 -102.45874,52.11845 -1.60879,2.452 -3.26391,5.20023 -3.67799,6.10719 -0.41414,0.90698 -0.87034,1.686 -1.01371,1.73125 -0.14292,0.0464 -0.43712,-0.98307 -0.65303,-2.28508 z"
       id="path18243" />
    <ellipse
       style="fill:none;stroke:#000000;stroke-width:2.6945;stroke-opacity:1"
       id="path18672"
       cx="1473.0164"
       cy="684.01538"
       rx="9.9226208"
       ry="12.796397" />
    <ellipse
       style="fill:none;stroke:#000000;stroke-width:2.99623;stroke-opacity:1"
       id="path19808"
       cx="1165.6925"
       cy="631.84082"
       rx="16.7307"
       ry="17.162474" />
    <ellipse
       style="fill:none;stroke:#000000;stroke-width:2.99623;stroke-opacity:1"
       id="path19808-2"
       cx="1338.5712"
       cy="696.66302"
       rx="16.7307"
       ry="17.162474" />
    <ellipse
       style="fill:none;stroke:#000000;stroke-width:2.99623;stroke-opacity:1"
       id="path19808-28"
       cx="1007.3619"
       cy="780.5141"
       rx="16.7307"
       ry="17.162474" />
    <path
       style="fill:none;stroke:#000000;stroke-width:2.99623px;stroke-linecap:butt;stroke-linejoin:miter;stroke-opacity:1"
       d="m 1121.2848,898.00982 c 41.0858,-12.89871 82.8997,-25.57647 150.0282,-30.57334"
       id="path19963"
       sodipodi:nodetypes="cc" />
    <path
       style="opacity:0.5;fill:#00ff00;stroke:#000000;stroke-width:1.63962"
       d="m 1035.2079,989.9902 c -0.6219,-2.51682 -20.8673,-83.15502 -44.98977,-179.19601 -24.12247,-96.04099 -43.74115,-174.67081 -43.59708,-174.73294 1.29468,-0.55829 365.03155,-94.08807 367.40865,-94.47392 2.8368,-0.46049 4.9931,6.49853 21.6873,69.99252 10.1956,38.77711 18.5543,71.11076 18.575,71.85256 0.021,0.7418 -1.9065,-0.18049 -4.2825,-2.04953 -2.9056,-2.28552 -6.7175,-3.39825 -11.6414,-3.39825 -6.1795,0 -8.2151,0.894 -13.0545,5.73333 -5.244,5.24406 -5.6848,6.42187 -5.1648,13.80186 l 0.5685,8.06854 -6.5585,1.9176 c -19.9489,5.83279 -59.82,31.06974 -79.4332,50.27836 -7.6166,7.45945 -14.0358,13.37519 -14.2649,13.14607 -0.2291,-0.22913 -3.052,-7.32268 -6.2732,-15.76347 -3.2211,-8.44078 -14.0492,-35.25567 -24.0624,-59.58864 l -18.2058,-44.24177 5.0684,-3.96665 c 13.7913,-10.79327 7.515,-32.54631 -9.9585,-34.51583 -6.0063,-0.677 -7.9664,-0.11517 -12.2899,3.5228 -10.3483,8.70755 -10.5042,22.91416 -0.3388,30.86979 l 4.7867,3.74621 -3.1523,8.29633 c -5.7018,15.00596 -14.3944,69.34404 -17.2858,108.05499 -0.5388,7.21435 -1.3408,15.45102 -1.7822,18.30372 l -0.8026,5.18672 -6.9207,-3.82644 c -18.8359,-10.41422 -76.2614,-18.86329 -96.2803,-14.16578 -5.5633,1.30543 -7.5451,1.24933 -8.0563,-0.22806 -0.3728,-1.07766 -2.714,-3.99552 -5.2026,-6.48411 -3.65,-3.64995 -6.0073,-4.52474 -12.1931,-4.52474 -6.5348,0 -8.49256,0.82413 -13.24315,5.57473 -4.7584,4.7584 -5.57473,6.70317 -5.57473,13.28095 0,6.57778 0.81633,8.52256 5.57473,13.28096 4.75059,4.7506 6.70835,5.57472 13.24315,5.57472 6.2505,0 8.4788,-0.84545 12.0512,-4.57247 2.4106,-2.51485 5.1933,-6.00717 6.1838,-7.76068 1.7418,-3.08343 2.0382,-3.03254 9.0179,1.54854 21.2741,13.96299 52.2928,53.92742 85.922,110.70192 10.8835,18.37404 13.3702,21.57673 16.2604,20.94258 1.8767,-0.41176 11.1593,-3.0229 20.6281,-5.80252 24.5164,-7.1969 43.3301,-11.26627 84.4407,-18.26435 32.7061,-5.56742 36.0281,-6.43014 35.604,-9.24635 -3.756,-24.94594 -2.7297,-40.39257 4.5632,-68.67722 8.1339,-31.5462 26.0757,-75.2133 39.5182,-96.18011 l 4.8897,-7.62664 9.3606,0.83265 c 7.8656,0.69966 10.0667,0.27312 13.7814,-2.67066 2.4314,-1.92682 5.3465,-6.06344 6.478,-9.1925 1.9659,-5.43642 3.236,-1.19079 28.5867,95.55776 14.5912,55.68582 26.0638,101.70781 25.4946,102.2711 -0.5691,0.5633 -84.4096,21.4983 -186.3123,46.52224 -101.9026,25.02395 -185.8093,45.80589 -186.4592,46.1821 -0.6499,0.37621 -1.6905,-1.3752 -2.3124,-3.89201 z"
       id="path919" />
    <path
       style="opacity:0.5;fill:#0000ff;stroke:#000000;stroke-width:1.63962"
       d="m 953.55159,602.15201 c 17.19237,-24.03883 163.68111,-226.85942 164.65741,-227.97595 1.0686,-1.22205 321.5349,-67.15241 322.3456,-66.317 0.2084,0.21466 -27.7926,46.80322 -62.2242,103.53011 l -62.6031,103.13981 -181.9627,48.04573 c -100.0795,26.42513 -182.95422,48.07712 -184.16606,48.11551 -1.31481,0.0417 0.27931,-3.40148 3.95305,-8.53821 z m 221.27951,-73.13416 c 7.2366,-2.81119 19.0419,-8.96995 26.234,-13.68614 14.5017,-9.5094 37.9179,-31.25857 50.0001,-46.44054 13.4526,-16.90395 45.819,-65.13182 44.8083,-66.76711 -1.965,-3.17945 -23.0637,-15.66309 -33.3628,-19.74009 -16.4672,-6.51869 -30.2606,-8.27156 -57.2411,-7.27424 -18.9734,0.70134 -27.6055,1.84769 -41.7397,5.54309 l -17.8193,4.65888 -10.3241,28.74607 c -12.0885,33.65916 -15.5231,48.70286 -15.5231,67.99176 0,14.24033 3.5805,36.07126 7.0992,43.28421 5.5099,11.29506 24.5118,12.75749 47.8685,3.68411 z"
       id="path995" />
    <path
       style="opacity:0.5;fill:#800080;stroke:#000000;stroke-width:1.63962"
       d="m 693.87765,255.83725 c -103.08121,-11.1052 -187.70483,-20.4757 -188.05248,-20.82335 -0.34765,-0.34765 52.13686,-36.38408 116.63224,-80.08094 101.67033,-68.883605 117.95627,-79.382229 122.46752,-78.947856 10.17042,0.97928 342.98537,41.286586 344.09797,41.673796 0.6228,0.21673 -42.9093,35.8054 -96.7378,79.08593 -90.21383,72.53594 -98.38313,78.71504 -104.42857,78.98778 -3.60717,0.16265 -90.89767,-8.79017 -193.97888,-19.89536 z m 169.45942,-7.48571 C 889.12173,230.61123 887.7161,200.98063 859.68,171.26089 l -10.59401,-11.2302 5.44847,0.76154 c 9.56139,1.33641 56.09281,5.61866 61.1137,5.62425 10.37007,0.0115 0.69909,-2.9992 -23.42416,-7.29234 -13.83017,-2.46132 -28.58678,-5.69984 -32.79249,-7.19673 l -7.64671,-2.7216 23.77455,-0.99395 c 36.12171,-1.51015 63.93031,-7.69262 85.67037,-19.04642 6.0871,-3.179 11.06746,-6.50538 11.06746,-7.39195 0,-0.89261 -1.28046,-1.08422 -2.86934,-0.42939 -38.46865,15.85429 -81.74757,24.70442 -102.06661,20.87165 l -7.37831,-1.39176 9.01793,-3.00685 c 20.68111,-6.8957 40.99061,-20.00022 40.99061,-26.44882 0,-3.50446 -1.42769,-2.90636 -8.66066,3.6282 -8.38994,7.5798 -28.41213,16.87792 -39.05974,18.13897 -7.4268,0.87959 -8.2964,0.63705 -9.12883,-2.5462 -1.12297,-4.29423 -1.87942,-4.31972 -7.09612,-0.23916 -5.49961,4.30186 -6.7847,4.08768 -4.91887,-0.81981 1.79785,-4.72869 0.58567,-5.06415 -5.96116,-1.64973 -6.26988,3.26996 -7.85677,3.11967 -12.90447,-1.22218 -5.59837,-4.81551 -7.18519,-15.18531 -3.46489,-22.64284 3.49717,-7.010228 3.34935,-8.584513 -0.60725,-6.467009 -8.09827,4.334059 -10.72981,20.617219 -5.11259,31.635069 3.59259,7.04666 3.03355,7.24352 -9.77331,3.44158 -22.21181,-6.59396 -36.0232,-17.55105 -43.53594,-34.538677 -4.28506,-9.689289 -7.1801,-10.167736 -7.1801,-1.186617 0,15.621674 16.26448,30.923304 42.63023,40.106524 5.86166,2.04163 11.3585,4.33049 12.2152,5.08636 3.28343,2.897 -18.28576,1.4246 -67.14261,-4.58341 -6.05377,-0.74444 -7.74568,-0.52386 -6.46837,0.84332 0.95138,1.01831 15.23331,4.55437 31.73765,7.85791 l 30.00788,6.00644 -24.35932,6.04306 c -71.34237,17.69861 -112.2295,40.99644 -112.00622,63.82207 0.0724,7.40369 0.0961,7.4345 2.86935,3.73887 1.53797,-2.04948 4.81568,-6.38129 7.28377,-9.62624 13.98542,-18.38735 51.75367,-38.48301 84.05225,-44.72236 5.41076,-1.04524 11.51812,-2.25944 13.57189,-2.69823 3.52675,-0.7535 3.41519,-0.31739 -2.00894,7.85275 -7.31302,11.01528 -8.79034,17.85928 -5.07804,23.52498 4.40181,6.718 12.86418,9.37709 30.40664,9.55449 13.7999,0.13956 16.69844,-0.36492 25.41418,-4.42318 6.15482,-2.86584 13.851,-8.55016 20.55787,-15.18381 l 10.72011,-10.6031 5.24017,3.86607 c 11.125,8.20777 17.30125,19.72461 17.29407,32.24816 -0.007,10.93096 -4.33553,20.15803 -14.61338,31.14588 -3.97439,4.24895 -7.22617,8.18395 -7.22617,8.74446 0,1.74298 8.11333,-1.96311 15.65133,-7.14939 z"
       id="path1169" />
    <path
       style="opacity:0.5;fill:#ff8080;stroke:#000000;stroke-width:1.63962"
       d="m 649.5109,657.24246 c -108.54527,-9.24169 -197.7414,-17.18944 -198.21363,-17.66167 -0.74462,-0.74462 38.52084,-378.22916 39.42878,-379.05466 0.18778,-0.17073 87.221,9.34702 193.40717,21.15056 l 193.06575,21.46098 v 4.67229 c 0,5.50666 -29.39187,364.01567 -29.95155,365.33579 -0.20983,0.49489 -89.19125,-6.66159 -197.73652,-15.90329 z m 26.73825,-70.23958 c 41.06823,-21.084 71.33523,-42.0196 96.02778,-66.42218 36.2719,-35.84592 51.44941,-70.9534 46.25153,-106.98548 -8.98743,-62.30172 -74.52484,-86.66685 -124.22654,-46.18425 -5.07067,4.13012 -9.38181,7.26497 -9.58031,6.96633 -4.9451,-7.43947 -19.41744,-24.11596 -24.64825,-28.40222 -11.90556,-9.75571 -20.86768,-12.76807 -37.75806,-12.69125 -25.16258,0.11445 -42.69674,7.53609 -58.73701,24.8615 -34.8255,37.6157 -31.44634,101.53822 8.12535,153.70467 28.50364,37.57567 73.5849,85.79304 80.21296,85.79304 1.98398,0 12.93362,-4.78808 24.33255,-10.64016 z"
       id="path1380" />
    <path
       style="opacity:0.5;fill:#ffd42a;stroke:#000000;stroke-width:1.63962"
       d="m 876.21206,660.6345 c 0.57129,-5.33702 7.30874,-87.54483 14.97209,-182.68403 7.66336,-95.1392 14.10772,-173.84011 14.32081,-174.89091 0.21309,-1.05081 46.13296,-37.99897 102.04414,-82.10702 67.3739,-53.1509 101.783,-79.3246 102.0311,-77.61122 0.2059,1.42188 -3.8754,60.50497 -9.0696,131.29574 l -9.4438,128.71051 -77.5233,107.1562 c -42.63772,58.93591 -77.17276,107.5066 -76.74449,107.93487 0.42826,0.42825 9.41764,-1.52685 19.97639,-4.34471 10.55876,-2.81784 19.48004,-4.84106 19.82507,-4.49603 0.34503,0.34504 -19.85012,12.68689 -44.87812,27.42636 -25.02799,14.73945 -47.99024,28.26486 -51.02722,30.05646 l -5.52179,3.25745 z m 61.86268,-170.1909 c 3.04096,-1.24491 15.58648,-3.06703 27.87893,-4.04915 15.02254,-1.20022 25.3888,-2.92264 31.61914,-5.25371 21.75989,-8.14141 49.49849,-36.31635 59.36089,-60.29456 7.814,-18.9979 3.8355,-40.21044 -9.1536,-48.80626 -22.3614,-14.7981 -70.27314,4.3261 -83.014,33.13545 -3.81742,8.63187 -7.22554,10.4599 -7.22554,3.87563 0,-4.97156 6.64011,-21.36149 10.02598,-24.74734 1.70006,-1.70006 4.99235,-3.09102 7.3162,-3.09102 5.25978,0 13.28309,-7.73983 14.65439,-14.13663 0.5564,-2.59547 2.06985,-6.67747 3.36322,-9.07109 5.60059,-10.36498 1.08798,-31.41577 -8.32112,-38.81697 -5.95666,-4.68551 -9.28464,-4.49108 -15.71301,0.91804 -5.58416,4.69877 -25.25604,33.42736 -32.03331,46.7811 -6.18229,12.18141 -13.286,35.02417 -15.92765,51.21709 -6.81844,41.79599 -7.9839,51.80144 -6.88646,59.11977 2.05254,13.68731 10.95856,18.5815 24.05594,13.21965 z"
       id="path1592" />
    <path
       style="opacity:0.5;fill:#ff7f2a;stroke:#000000;stroke-width:1.63962"
       d="m 1430.0322,881.06647 c -0.9525,-3.02891 -22.8257,-82.79325 -48.607,-177.25405 l -46.8751,-171.74696 62.6124,-103.70993 c 34.4368,-57.04046 63.42,-104.59668 64.4072,-105.68049 1.3235,-1.45298 16.3922,51.08778 57.3697,200.03415 30.5661,111.1026 55.8353,202.74256 56.1537,203.64435 0.4361,1.23487 -123.395,139.92208 -140.336,157.17237 -2.9107,2.96375 -3.0408,2.89602 -4.7249,-2.45944 z m 53.1953,-171.25546 c 28.3034,-35.25041 51.4608,-64.54462 51.4608,-65.09826 0,-1.26271 -117.5112,-165.04822 -120.8233,-168.4019 -2.1471,-2.17403 -2.3172,-0.84209 -1.4658,11.47736 0.5298,7.66525 3.2,72.96328 5.934,145.10675 2.7339,72.14347 5.3896,135.2163 5.9015,140.16184 l 0.9307,8.99191 3.3006,-4.07304 c 1.8153,-2.24015 26.458,-32.91426 54.7615,-68.16466 z"
       id="path1785" />
    <path
       style="opacity:0.5;fill:#ff0000;stroke:#000000;stroke-width:1.63962"
       d="m 632.0249,574.2831 c -17.49072,-17.8431 -41.18056,-45.37352 -57.04074,-66.28812 -38.0618,-50.19164 -40.80478,-113.58956 -6.40301,-147.99133 11.35228,-11.35228 22.76472,-17.50752 38.69289,-20.86881 14.44724,-3.04877 28.25139,-1.78651 38.60504,3.53007 8.17527,4.19799 24.36905,20.09884 32.87328,32.27864 l 5.35378,7.66772 10.74186,-9.11261 c 24.40323,-20.70191 50.75375,-26.38824 76.97126,-16.61008 11.50887,4.29238 29.03287,21.00684 34.58931,32.99143 29.806,64.28785 -22.00984,137.57286 -138.6352,196.07679 -7.41978,3.72204 -14.42917,6.76948 -15.57643,6.77207 -1.14726,0.003 -10.22467,-8.298 -20.17204,-18.44577 z"
       id="path1995" />
    <path
       style="opacity:0.5;fill:#ff6600;stroke:#000000;stroke-width:1.63962"
       d="m 922.43558,485.63898 c -4.30409,-3.14723 -5.00705,-14.61435 -2.03989,-33.2763 1.41862,-8.92244 3.06031,-20.2807 3.6482,-25.24056 1.72165,-14.52504 8.56544,-38.83679 14.62381,-51.94935 6.09715,-13.19649 24.82899,-42.86168 31.64613,-50.11726 2.33007,-2.47993 5.52056,-4.50897 7.08998,-4.50897 4.11665,0 9.32401,7.39191 12.21637,17.34129 2.23217,7.67839 2.23815,9.27169 0.0544,14.49823 -2.65139,6.34566 -7.2058,7.76588 -10.84439,3.38165 -1.68483,-2.03011 -1.57046,-3.03851 0.61905,-5.45789 1.47715,-1.63223 2.68573,-3.83188 2.68573,-4.88811 0,-3.41944 -4.76842,-2.03468 -7.53543,2.18831 -3.77445,5.76054 -0.53512,13.7067 6.1312,15.03996 2.57591,0.51518 4.68348,1.52569 4.68348,2.24557 0,3.5535 -8.91824,11.38472 -14.06443,12.35015 -7.23365,1.35704 -11.34308,6.63657 -15.40694,19.79382 -3.09509,10.02073 -3.06648,18.68305 0.0751,22.73522 0.71233,0.9188 0.11248,5.91961 -1.333,11.11291 -1.98803,7.14257 -2.16665,9.90386 -0.73338,11.33714 2.62197,2.62197 3.76015,1.00425 5.375,-7.6396 2.49584,-13.35958 11.52083,-32.39277 19.31046,-40.72466 14.72326,-15.74819 44.19477,-26.08369 59.74407,-20.95195 7.4956,2.47377 15.2392,11.24789 17.5717,19.91012 4.7727,17.72441 -10.6517,46.56282 -36.9262,69.03951 -16.3706,14.00429 -26.04345,17.57875 -54.41213,20.10718 -13.35945,1.19071 -26.36698,2.98795 -28.90562,3.99387 -6.04914,2.39695 -9.6769,2.30941 -13.27322,-0.32028 z"
       id="path2169" />
    <path
       style="opacity:0.5;fill:#00ffff;stroke:#000000;stroke-width:1.63962"
       d="m 1134.8878,526.01965 c -7.3491,-7.34909 -10.7955,-25.08025 -9.6268,-49.52829 1.0176,-21.28921 3.1801,-29.88331 16.3311,-64.90408 l 8.6043,-22.91314 15.2826,-3.63452 c 49.2294,-11.70782 89.5932,-6.91212 117.9481,14.01363 l 6.9796,5.15089 -14.2601,20.88683 c -23.4194,34.30252 -31.5905,44.69965 -48.009,61.08819 -26.163,26.11531 -54.5615,42.20165 -77.4434,43.86783 -10.4527,0.76114 -11.2111,0.5679 -15.8064,-4.02734 z m 63.0265,-22.74392 c 1.7295,-6.89069 -0.3036,-20.34433 -3.7835,-25.03749 -1.789,-2.41276 -6.2347,-6.49636 -9.8792,-9.07468 -12.7273,-9.00386 -35.525,-4.95057 -45.7906,8.14127 -5.484,6.9937 -9.3582,13.7109 -8.4384,14.6307 0.323,0.32296 3.8875,-0.17515 7.9211,-1.10692 16.7962,-3.87991 38.7329,1.35995 51.6037,12.32616 6.189,5.27323 7.0706,5.28597 8.3669,0.12096 z m 51.7567,-50.32953 c 3.7168,-2.99471 5.0516,-7.78822 2.1688,-7.78822 -4.4529,0 -27.0405,-32.37357 -27.0405,-38.75565 0,-1.37952 -0.9223,-2.2078 -2.0495,-1.84061 -5.803,1.89027 -9.5867,22.99958 -6.3,35.14779 2.8156,10.40668 9.608,15.28622 21.2789,15.28622 5.1692,0 10.5433,-0.92229 11.9423,-2.04953 z m -71.5095,-15.79963 c 3.6575,-1.66128 9.3721,-6.20069 12.6991,-10.08756 6.1622,-7.19911 13.2118,-22.77932 11.2477,-24.85847 -0.5959,-0.63086 -9.1137,2.08072 -18.9283,6.02574 -9.8146,3.94502 -22.5422,8.4443 -28.2835,9.9984 -7.5126,2.03356 -10.4388,3.59068 -10.4388,5.55478 0,5.71202 15.3686,16.28726 23.7746,16.35946 1.8036,0.0154 6.2717,-1.33106 9.9292,-2.99235 z"
       id="path2343" />
    <path
       style="opacity:0.5;fill:#000080;stroke:#000000;stroke-width:0.579695"
       d="m 1161.5425,434.57379 c -1.6853,-0.59835 -4.4967,-2.07452 -6.2476,-3.28038 -3.0823,-2.1229 -7.0649,-6.42522 -6.4847,-7.0054 0.1567,-0.1567 2.6011,-0.91071 5.4321,-1.67558 9.8678,-2.66614 34.5559,-11.61255 40.7118,-14.75307 3.2297,-1.64765 3.1565,-1.05943 -0.8698,6.98338 -2.8186,5.63055 -3.97,7.24101 -8.2606,11.55499 -6.3488,6.38326 -11.0159,8.86255 -17.1366,9.10339 -2.8592,0.11251 -4.9975,-0.16503 -7.1446,-0.92733 z"
       id="path3205" />
    <path
       style="opacity:0.5;fill:#000080;stroke:#000000;stroke-width:0.579695"
       d="m 1230.3312,450.96617 c -3.1081,-0.95711 -6.8661,-4.34272 -8.6061,-7.75328 -3.2836,-6.43648 -3.8461,-19.73488 -1.1884,-28.09702 l 1.2724,-4.0034 2.6017,4.87294 c 5.8311,10.92142 16.7312,26.04391 22.0473,30.58797 l 2.6541,2.26867 -1.4581,0.95536 c -0.8019,0.52545 -2.3361,1.2072 -3.4094,1.51499 -2.8289,0.81132 -10.7985,0.613 -13.9135,-0.34623 z"
       id="path3244" />
    <path
       style="opacity:0.5;fill:#000080;stroke:#000000;stroke-width:0.579695"
       d="m 1189.5074,497.61315 c -5.6563,-4.27896 -14.6465,-8.78265 -20.8429,-10.44136 -5.5697,-1.49096 -20.1809,-2.1341 -26.9374,-1.18571 -2.3812,0.33424 -4.4146,0.52245 -4.5188,0.41825 -0.5044,-0.50432 7.0582,-9.57867 9.5641,-11.47602 5.9307,-4.4905 13.5697,-6.76244 22.8793,-6.8046 4.83,-0.0219 6.0389,0.34946 10.8966,3.3471 9.4817,5.85104 13.9842,13.59626 13.9676,24.02716 0,2.86826 -0.096,5.30246 -0.2026,5.40936 -0.1069,0.10689 -2.2696,-1.37549 -4.8059,-3.29418 z"
       id="path3283" />
    <path
       style="opacity:0.5;fill:#008000;stroke:#000000;stroke-width:1.15939"
       d="m 1118.949,886.94471 c -6.8608,-11.72825 -28.9705,-44.97192 -36.9334,-55.53216 -18.1277,-24.0405 -34.1091,-40.40479 -47.277,-48.40961 -8.6783,-5.27558 -7.8228,-5.7731 11.2029,-6.51475 29.148,-1.13625 67.1335,6.22828 83.9944,16.28462 6.0575,3.6129 6.2776,3.92232 6.6221,9.31172 0.2881,4.50753 0.7319,5.5028 2.3187,5.19935 1.6983,-0.32475 2.0648,-2.71486 2.722,-17.7529 0.4178,-9.55769 1.8795,-27.55126 3.2483,-39.98572 5.8987,-53.58414 12.619,-87.78238 18.7925,-95.63068 l 2.5029,-3.18188 1.4349,2.74086 c 2.1052,4.02124 36.8024,89.07486 44.7278,109.64183 3.7361,9.6954 6.7929,18.8563 6.7929,20.35757 0,3.71671 2.7132,7.19257 4.9457,6.33588 1.4958,-0.574 1.6042,-1.47424 0.6365,-5.28669 -1.5238,-6.00333 0.7325,-10.87103 9.3573,-20.18679 18.5079,-19.99074 67.3607,-50.21852 86.8557,-53.74214 l 4.2889,-0.77519 -2.4837,2.76262 c -10.0404,11.16799 -26.7172,46.82395 -38.1462,81.55862 -7.2745,22.1086 -11.517,40.52502 -13.4137,58.22893 l -1.3896,12.97024 -7.6448,0.72531 c -41.2466,3.91336 -73.7074,10.03823 -111.8788,21.10992 -12.1767,3.53185 -23.1838,6.6542 -24.4602,6.93855 -1.8502,0.41215 -3.2326,-1.04162 -6.8161,-7.16751 z"
       id="path3476" />
    <path
       style="opacity:0.5;fill:#008000;stroke:#000000;stroke-width:1.15939"
       d="m 1134.7884,913.88872 c -1.5153,-1.96524 -8.4416,-14.33663 -8.4416,-15.07804 0,-0.32629 1.1739,-0.84752 2.6087,-1.1583 1.4347,-0.31078 11.7388,-3.22375 22.8979,-6.47328 32.7158,-9.52683 61.7824,-15.45645 94.4902,-19.27614 21.1952,-2.47522 23.6069,-2.39282 24.22,0.82743 0.2731,1.43475 0.9911,5.07717 1.5954,8.09429 l 1.0988,5.48566 -3.6023,0.5763 c -31.969,5.11448 -50.6419,8.35983 -64.4702,11.20491 -19.4735,4.00653 -50.7047,11.82985 -60.0204,15.03491 -7.5612,2.60144 -8.8835,2.69857 -10.3765,0.76226 z"
       id="path3552" />
    <path
       style="opacity:0.5;fill:#008000;stroke:#000000;stroke-width:1.15939"
       d="m 1156.8088,643.38612 c -11.8259,-9.32068 -2.9193,-29.11945 11.831,-26.29974 4.2494,0.81233 10.5251,7.28439 11.4247,11.78219 0.9649,4.82442 -2.0641,12.23952 -6.2037,15.18721 -4.7231,3.36316 -12.3135,3.06507 -17.052,-0.66966 z"
       id="path3591" />
    <path
       style="opacity:0.5;fill:#008000;stroke:#000000;stroke-width:1.15939"
       d="m 1331.2835,709.47052 c -7.3125,-3.96771 -9.2649,-15.80552 -3.698,-22.42143 4.271,-5.07577 10.9363,-6.67491 16.4299,-3.94187 5.9765,2.9733 9.0145,7.5991 8.8866,13.53093 -0.245,11.36073 -11.7474,18.18836 -21.6185,12.83237 z"
       id="path3630" />
    <path
       style="opacity:0.5;fill:#008000;stroke:#000000;stroke-width:1.15939"
       d="m 1001.2736,793.93839 c -5.84979,-2.88183 -8.49039,-7.82015 -7.89065,-14.75678 0.95673,-11.06563 11.98255,-16.82418 21.31635,-11.13305 10.5993,6.46274 9.0218,21.24329 -2.8049,26.28262 -4.7234,2.01261 -5.8204,1.97204 -10.6208,-0.39279 z"
       id="path3669" />
    <path
       style="opacity:0.5;fill:#ffff00;stroke:#000000;stroke-width:1.15939"
       d="m 1444.2357,617.66472 c -8.418,-25.98482 -15.2797,-47.76685 -15.2482,-48.40451 0.032,-0.63767 5.1101,-4.98117 11.2857,-9.65224 9.7764,-7.39451 11.3357,-8.21917 12.0567,-6.37664 0.4554,1.16391 3.9736,23.83436 7.8181,50.37877 l 6.9901,48.26257 -3.5307,6.51858 c -1.9418,3.58522 -3.6511,6.51859 -3.7984,6.51859 -0.1474,0 -7.1554,-21.26031 -15.5733,-47.24512 z"
       id="path3843" />
    <path
       style="opacity:0.5;fill:#ffe680;stroke:#000000;stroke-width:1.15939"
       d="m 1427.8267,764.04498 c -0.021,-3.82194 -2.4069,-65.38551 -5.3015,-136.80795 -2.8946,-71.42243 -5.112,-131.67764 -4.9274,-133.90047 0.3135,-3.77726 3.9637,1.0113 55.8266,73.2378 30.5201,42.50362 55.4894,77.628 55.4873,78.05418 0,0.58383 -87.9022,110.5979 -99.0561,123.97784 -1.9256,2.30993 -1.9916,2.16159 -2.0289,-4.5614 z m 52.4055,-68.89591 c 3.542,-3.16479 3.7863,-3.87053 3.7863,-10.93808 0,-6.7788 -0.3499,-7.92017 -3.4053,-11.1093 -2.5738,-2.68652 -4.4315,-3.5543 -7.6089,-3.5543 -3.1774,0 -5.0352,0.86778 -7.609,3.5543 -3.0554,3.18913 -3.4052,4.3305 -3.4052,11.1093 0,7.06755 0.2443,7.77329 3.7863,10.93808 2.3813,2.1277 5.0634,3.38306 7.2279,3.38306 2.1645,0 4.8466,-1.25536 7.2279,-3.38306 z m -13.6802,-33.13771 5.0264,-9.27511 -8.0073,-54.41954 c -4.4041,-29.93075 -8.2162,-54.62836 -8.4714,-54.88357 -0.8447,-0.8447 -31.8424,23.48446 -31.4527,24.68628 0.2101,0.64789 8.1222,25.07332 17.5825,54.27872 15.1039,46.62827 17.3892,52.84402 18.7483,50.99454 0.8513,-1.15841 3.8097,-6.28 6.5742,-11.38132 z"
       id="path3958" />
    <path
       style="opacity:0.5;fill:#ffff00;stroke:#000000;stroke-width:0.204953"
       d="m 1470.9704,695.0133 c -2.2177,-0.82459 -4.4924,-3.25001 -5.4691,-5.83141 -2.3319,-6.16307 -0.086,-13.53764 4.8231,-15.83472 1.2237,-0.57265 1.4985,-0.62395 2.9339,-0.54777 1.1173,0.0593 1.8855,0.22894 2.6085,0.57605 2.185,1.04906 4.3237,3.94596 5.1428,6.96614 0.4449,1.64081 0.5048,5.36107 0.112,6.9684 -0.7676,3.14171 -2.8769,6.11846 -5.1618,7.28475 -1.3652,0.69686 -3.7116,0.8937 -4.9894,0.41856 z"
       id="path4349" />
  </g>
</svg>
